<mxfile host="app.diagrams.net" modified="2024-05-27T14:43:34.192Z" agent="Mozilla/5.0 (Windows NT 10.0; Win64; x64) AppleWebKit/537.36 (KHTML, like Gecko) Chrome/121.0.0.0 Safari/537.36" etag="hAFUnoiaZmmRcb_w3mMO" version="24.4.9" type="device">
  <diagram name="Página-1" id="bhXczR_S5o1jz8hCAI9M">
    <mxGraphModel dx="-1874" dy="782" grid="1" gridSize="10" guides="1" tooltips="1" connect="1" arrows="1" fold="1" page="1" pageScale="1" pageWidth="827" pageHeight="1169" math="0" shadow="0">
      <root>
        <mxCell id="0" />
        <mxCell id="1" parent="0" />
        <mxCell id="_OtTeNp_AdRQ9EkmlAUw-1" value="" style="shape=ext;double=1;rounded=0;whiteSpace=wrap;html=1;direction=south;" parent="1" vertex="1">
          <mxGeometry x="3310" width="820" height="1170" as="geometry" />
        </mxCell>
        <mxCell id="_OtTeNp_AdRQ9EkmlAUw-2" value="Setores" style="shape=ext;double=1;rounded=0;whiteSpace=wrap;html=1;" parent="1" vertex="1">
          <mxGeometry x="3522" y="820" width="400" height="50" as="geometry" />
        </mxCell>
        <mxCell id="_OtTeNp_AdRQ9EkmlAUw-3" value="Matéria-Prima" style="shape=ext;double=1;rounded=0;whiteSpace=wrap;html=1;" parent="1" vertex="1">
          <mxGeometry x="3522" y="740" width="400" height="50" as="geometry" />
        </mxCell>
        <mxCell id="_OtTeNp_AdRQ9EkmlAUw-4" value="Clientes" style="shape=ext;double=1;rounded=0;whiteSpace=wrap;html=1;" parent="1" vertex="1">
          <mxGeometry x="3522" y="900" width="400" height="50" as="geometry" />
        </mxCell>
        <mxCell id="_OtTeNp_AdRQ9EkmlAUw-5" value="Fornecedores" style="shape=ext;double=1;rounded=0;whiteSpace=wrap;html=1;" parent="1" vertex="1">
          <mxGeometry x="3522" y="990" width="400" height="50" as="geometry" />
        </mxCell>
        <mxCell id="_OtTeNp_AdRQ9EkmlAUw-6" value="" style="ellipse;shape=doubleEllipse;whiteSpace=wrap;html=1;aspect=fixed;" parent="1" vertex="1">
          <mxGeometry x="3490" y="75" width="435" height="435" as="geometry" />
        </mxCell>
        <mxCell id="_OtTeNp_AdRQ9EkmlAUw-8" value="Nome da empresa" style="text;strokeColor=none;fillColor=none;html=1;fontSize=24;fontStyle=1;verticalAlign=middle;align=center;" parent="1" vertex="1">
          <mxGeometry x="3650" y="280" width="100" height="40" as="geometry" />
        </mxCell>
        <mxCell id="_OtTeNp_AdRQ9EkmlAUw-10" value="" style="shape=ext;double=1;rounded=0;whiteSpace=wrap;html=1;direction=south;" parent="1" vertex="1">
          <mxGeometry x="4130" width="830" height="1160" as="geometry" />
        </mxCell>
        <mxCell id="_OtTeNp_AdRQ9EkmlAUw-11" value="Matéria-Prima" style="text;strokeColor=none;fillColor=none;html=1;fontSize=24;fontStyle=1;verticalAlign=middle;align=center;" parent="1" vertex="1">
          <mxGeometry x="4180" y="20" width="80" height="20" as="geometry" />
        </mxCell>
        <mxCell id="_OtTeNp_AdRQ9EkmlAUw-27" value="" style="shape=table;startSize=0;container=1;collapsible=0;childLayout=tableLayout;fontSize=16;" parent="1" vertex="1">
          <mxGeometry x="4130" y="200" width="830" height="120" as="geometry" />
        </mxCell>
        <mxCell id="_OtTeNp_AdRQ9EkmlAUw-28" value="" style="shape=tableRow;horizontal=0;startSize=0;swimlaneHead=0;swimlaneBody=0;strokeColor=inherit;top=0;left=0;bottom=0;right=0;collapsible=0;dropTarget=0;fillColor=none;points=[[0,0.5],[1,0.5]];portConstraint=eastwest;fontSize=16;" parent="_OtTeNp_AdRQ9EkmlAUw-27" vertex="1">
          <mxGeometry width="830" height="40" as="geometry" />
        </mxCell>
        <mxCell id="_OtTeNp_AdRQ9EkmlAUw-29" value="" style="shape=partialRectangle;html=1;whiteSpace=wrap;connectable=0;strokeColor=inherit;overflow=hidden;fillColor=none;top=0;left=0;bottom=0;right=0;pointerEvents=1;fontSize=16;" parent="_OtTeNp_AdRQ9EkmlAUw-28" vertex="1">
          <mxGeometry width="210" height="40" as="geometry">
            <mxRectangle width="210" height="40" as="alternateBounds" />
          </mxGeometry>
        </mxCell>
        <mxCell id="_OtTeNp_AdRQ9EkmlAUw-30" value="" style="shape=partialRectangle;html=1;whiteSpace=wrap;connectable=0;strokeColor=inherit;overflow=hidden;fillColor=none;top=0;left=0;bottom=0;right=0;pointerEvents=1;fontSize=16;" parent="_OtTeNp_AdRQ9EkmlAUw-28" vertex="1">
          <mxGeometry x="210" width="370" height="40" as="geometry">
            <mxRectangle width="370" height="40" as="alternateBounds" />
          </mxGeometry>
        </mxCell>
        <mxCell id="_OtTeNp_AdRQ9EkmlAUw-31" value="" style="shape=partialRectangle;html=1;whiteSpace=wrap;connectable=0;strokeColor=inherit;overflow=hidden;fillColor=none;top=0;left=0;bottom=0;right=0;pointerEvents=1;fontSize=16;" parent="_OtTeNp_AdRQ9EkmlAUw-28" vertex="1">
          <mxGeometry x="580" width="250" height="40" as="geometry">
            <mxRectangle width="250" height="40" as="alternateBounds" />
          </mxGeometry>
        </mxCell>
        <mxCell id="_OtTeNp_AdRQ9EkmlAUw-32" value="" style="shape=tableRow;horizontal=0;startSize=0;swimlaneHead=0;swimlaneBody=0;strokeColor=inherit;top=0;left=0;bottom=0;right=0;collapsible=0;dropTarget=0;fillColor=none;points=[[0,0.5],[1,0.5]];portConstraint=eastwest;fontSize=16;" parent="_OtTeNp_AdRQ9EkmlAUw-27" vertex="1">
          <mxGeometry y="40" width="830" height="40" as="geometry" />
        </mxCell>
        <mxCell id="_OtTeNp_AdRQ9EkmlAUw-33" value="" style="shape=partialRectangle;html=1;whiteSpace=wrap;connectable=0;strokeColor=inherit;overflow=hidden;fillColor=none;top=0;left=0;bottom=0;right=0;pointerEvents=1;fontSize=16;" parent="_OtTeNp_AdRQ9EkmlAUw-32" vertex="1">
          <mxGeometry width="210" height="40" as="geometry">
            <mxRectangle width="210" height="40" as="alternateBounds" />
          </mxGeometry>
        </mxCell>
        <mxCell id="_OtTeNp_AdRQ9EkmlAUw-34" value="" style="shape=partialRectangle;html=1;whiteSpace=wrap;connectable=0;strokeColor=inherit;overflow=hidden;fillColor=none;top=0;left=0;bottom=0;right=0;pointerEvents=1;fontSize=16;" parent="_OtTeNp_AdRQ9EkmlAUw-32" vertex="1">
          <mxGeometry x="210" width="370" height="40" as="geometry">
            <mxRectangle width="370" height="40" as="alternateBounds" />
          </mxGeometry>
        </mxCell>
        <mxCell id="_OtTeNp_AdRQ9EkmlAUw-35" value="" style="shape=partialRectangle;html=1;whiteSpace=wrap;connectable=0;strokeColor=inherit;overflow=hidden;fillColor=none;top=0;left=0;bottom=0;right=0;pointerEvents=1;fontSize=16;" parent="_OtTeNp_AdRQ9EkmlAUw-32" vertex="1">
          <mxGeometry x="580" width="250" height="40" as="geometry">
            <mxRectangle width="250" height="40" as="alternateBounds" />
          </mxGeometry>
        </mxCell>
        <mxCell id="_OtTeNp_AdRQ9EkmlAUw-36" value="" style="shape=tableRow;horizontal=0;startSize=0;swimlaneHead=0;swimlaneBody=0;strokeColor=inherit;top=0;left=0;bottom=0;right=0;collapsible=0;dropTarget=0;fillColor=none;points=[[0,0.5],[1,0.5]];portConstraint=eastwest;fontSize=16;" parent="_OtTeNp_AdRQ9EkmlAUw-27" vertex="1">
          <mxGeometry y="80" width="830" height="40" as="geometry" />
        </mxCell>
        <mxCell id="_OtTeNp_AdRQ9EkmlAUw-37" value="" style="shape=partialRectangle;html=1;whiteSpace=wrap;connectable=0;strokeColor=inherit;overflow=hidden;fillColor=none;top=0;left=0;bottom=0;right=0;pointerEvents=1;fontSize=16;" parent="_OtTeNp_AdRQ9EkmlAUw-36" vertex="1">
          <mxGeometry width="210" height="40" as="geometry">
            <mxRectangle width="210" height="40" as="alternateBounds" />
          </mxGeometry>
        </mxCell>
        <mxCell id="_OtTeNp_AdRQ9EkmlAUw-38" value="" style="shape=partialRectangle;html=1;whiteSpace=wrap;connectable=0;strokeColor=inherit;overflow=hidden;fillColor=none;top=0;left=0;bottom=0;right=0;pointerEvents=1;fontSize=16;" parent="_OtTeNp_AdRQ9EkmlAUw-36" vertex="1">
          <mxGeometry x="210" width="370" height="40" as="geometry">
            <mxRectangle width="370" height="40" as="alternateBounds" />
          </mxGeometry>
        </mxCell>
        <mxCell id="_OtTeNp_AdRQ9EkmlAUw-39" value="" style="shape=partialRectangle;html=1;whiteSpace=wrap;connectable=0;strokeColor=inherit;overflow=hidden;fillColor=none;top=0;left=0;bottom=0;right=0;pointerEvents=1;fontSize=16;" parent="_OtTeNp_AdRQ9EkmlAUw-36" vertex="1">
          <mxGeometry x="580" width="250" height="40" as="geometry">
            <mxRectangle width="250" height="40" as="alternateBounds" />
          </mxGeometry>
        </mxCell>
        <mxCell id="_OtTeNp_AdRQ9EkmlAUw-40" value="" style="shape=table;startSize=0;container=1;collapsible=0;childLayout=tableLayout;fontSize=16;" parent="1" vertex="1">
          <mxGeometry x="4130" y="320" width="830" height="120" as="geometry" />
        </mxCell>
        <mxCell id="_OtTeNp_AdRQ9EkmlAUw-41" value="" style="shape=tableRow;horizontal=0;startSize=0;swimlaneHead=0;swimlaneBody=0;strokeColor=inherit;top=0;left=0;bottom=0;right=0;collapsible=0;dropTarget=0;fillColor=none;points=[[0,0.5],[1,0.5]];portConstraint=eastwest;fontSize=16;" parent="_OtTeNp_AdRQ9EkmlAUw-40" vertex="1">
          <mxGeometry width="830" height="40" as="geometry" />
        </mxCell>
        <mxCell id="_OtTeNp_AdRQ9EkmlAUw-42" value="" style="shape=partialRectangle;html=1;whiteSpace=wrap;connectable=0;strokeColor=inherit;overflow=hidden;fillColor=none;top=0;left=0;bottom=0;right=0;pointerEvents=1;fontSize=16;" parent="_OtTeNp_AdRQ9EkmlAUw-41" vertex="1">
          <mxGeometry width="210" height="40" as="geometry">
            <mxRectangle width="210" height="40" as="alternateBounds" />
          </mxGeometry>
        </mxCell>
        <mxCell id="_OtTeNp_AdRQ9EkmlAUw-43" value="" style="shape=partialRectangle;html=1;whiteSpace=wrap;connectable=0;strokeColor=inherit;overflow=hidden;fillColor=none;top=0;left=0;bottom=0;right=0;pointerEvents=1;fontSize=16;" parent="_OtTeNp_AdRQ9EkmlAUw-41" vertex="1">
          <mxGeometry x="210" width="370" height="40" as="geometry">
            <mxRectangle width="370" height="40" as="alternateBounds" />
          </mxGeometry>
        </mxCell>
        <mxCell id="_OtTeNp_AdRQ9EkmlAUw-44" value="" style="shape=partialRectangle;html=1;whiteSpace=wrap;connectable=0;strokeColor=inherit;overflow=hidden;fillColor=none;top=0;left=0;bottom=0;right=0;pointerEvents=1;fontSize=16;" parent="_OtTeNp_AdRQ9EkmlAUw-41" vertex="1">
          <mxGeometry x="580" width="250" height="40" as="geometry">
            <mxRectangle width="250" height="40" as="alternateBounds" />
          </mxGeometry>
        </mxCell>
        <mxCell id="_OtTeNp_AdRQ9EkmlAUw-45" value="" style="shape=tableRow;horizontal=0;startSize=0;swimlaneHead=0;swimlaneBody=0;strokeColor=inherit;top=0;left=0;bottom=0;right=0;collapsible=0;dropTarget=0;fillColor=none;points=[[0,0.5],[1,0.5]];portConstraint=eastwest;fontSize=16;" parent="_OtTeNp_AdRQ9EkmlAUw-40" vertex="1">
          <mxGeometry y="40" width="830" height="40" as="geometry" />
        </mxCell>
        <mxCell id="_OtTeNp_AdRQ9EkmlAUw-46" value="" style="shape=partialRectangle;html=1;whiteSpace=wrap;connectable=0;strokeColor=inherit;overflow=hidden;fillColor=none;top=0;left=0;bottom=0;right=0;pointerEvents=1;fontSize=16;" parent="_OtTeNp_AdRQ9EkmlAUw-45" vertex="1">
          <mxGeometry width="210" height="40" as="geometry">
            <mxRectangle width="210" height="40" as="alternateBounds" />
          </mxGeometry>
        </mxCell>
        <mxCell id="_OtTeNp_AdRQ9EkmlAUw-47" value="" style="shape=partialRectangle;html=1;whiteSpace=wrap;connectable=0;strokeColor=inherit;overflow=hidden;fillColor=none;top=0;left=0;bottom=0;right=0;pointerEvents=1;fontSize=16;" parent="_OtTeNp_AdRQ9EkmlAUw-45" vertex="1">
          <mxGeometry x="210" width="370" height="40" as="geometry">
            <mxRectangle width="370" height="40" as="alternateBounds" />
          </mxGeometry>
        </mxCell>
        <mxCell id="_OtTeNp_AdRQ9EkmlAUw-48" value="" style="shape=partialRectangle;html=1;whiteSpace=wrap;connectable=0;strokeColor=inherit;overflow=hidden;fillColor=none;top=0;left=0;bottom=0;right=0;pointerEvents=1;fontSize=16;" parent="_OtTeNp_AdRQ9EkmlAUw-45" vertex="1">
          <mxGeometry x="580" width="250" height="40" as="geometry">
            <mxRectangle width="250" height="40" as="alternateBounds" />
          </mxGeometry>
        </mxCell>
        <mxCell id="_OtTeNp_AdRQ9EkmlAUw-49" value="" style="shape=tableRow;horizontal=0;startSize=0;swimlaneHead=0;swimlaneBody=0;strokeColor=inherit;top=0;left=0;bottom=0;right=0;collapsible=0;dropTarget=0;fillColor=none;points=[[0,0.5],[1,0.5]];portConstraint=eastwest;fontSize=16;" parent="_OtTeNp_AdRQ9EkmlAUw-40" vertex="1">
          <mxGeometry y="80" width="830" height="40" as="geometry" />
        </mxCell>
        <mxCell id="_OtTeNp_AdRQ9EkmlAUw-50" value="" style="shape=partialRectangle;html=1;whiteSpace=wrap;connectable=0;strokeColor=inherit;overflow=hidden;fillColor=none;top=0;left=0;bottom=0;right=0;pointerEvents=1;fontSize=16;" parent="_OtTeNp_AdRQ9EkmlAUw-49" vertex="1">
          <mxGeometry width="210" height="40" as="geometry">
            <mxRectangle width="210" height="40" as="alternateBounds" />
          </mxGeometry>
        </mxCell>
        <mxCell id="_OtTeNp_AdRQ9EkmlAUw-51" value="" style="shape=partialRectangle;html=1;whiteSpace=wrap;connectable=0;strokeColor=inherit;overflow=hidden;fillColor=none;top=0;left=0;bottom=0;right=0;pointerEvents=1;fontSize=16;" parent="_OtTeNp_AdRQ9EkmlAUw-49" vertex="1">
          <mxGeometry x="210" width="370" height="40" as="geometry">
            <mxRectangle width="370" height="40" as="alternateBounds" />
          </mxGeometry>
        </mxCell>
        <mxCell id="_OtTeNp_AdRQ9EkmlAUw-52" value="" style="shape=partialRectangle;html=1;whiteSpace=wrap;connectable=0;strokeColor=inherit;overflow=hidden;fillColor=none;top=0;left=0;bottom=0;right=0;pointerEvents=1;fontSize=16;" parent="_OtTeNp_AdRQ9EkmlAUw-49" vertex="1">
          <mxGeometry x="580" width="250" height="40" as="geometry">
            <mxRectangle width="250" height="40" as="alternateBounds" />
          </mxGeometry>
        </mxCell>
        <mxCell id="_OtTeNp_AdRQ9EkmlAUw-53" value="" style="shape=table;startSize=0;container=1;collapsible=0;childLayout=tableLayout;fontSize=16;" parent="1" vertex="1">
          <mxGeometry x="4130" y="440" width="830" height="120" as="geometry" />
        </mxCell>
        <mxCell id="_OtTeNp_AdRQ9EkmlAUw-54" value="" style="shape=tableRow;horizontal=0;startSize=0;swimlaneHead=0;swimlaneBody=0;strokeColor=inherit;top=0;left=0;bottom=0;right=0;collapsible=0;dropTarget=0;fillColor=none;points=[[0,0.5],[1,0.5]];portConstraint=eastwest;fontSize=16;" parent="_OtTeNp_AdRQ9EkmlAUw-53" vertex="1">
          <mxGeometry width="830" height="40" as="geometry" />
        </mxCell>
        <mxCell id="_OtTeNp_AdRQ9EkmlAUw-55" value="" style="shape=partialRectangle;html=1;whiteSpace=wrap;connectable=0;strokeColor=inherit;overflow=hidden;fillColor=none;top=0;left=0;bottom=0;right=0;pointerEvents=1;fontSize=16;" parent="_OtTeNp_AdRQ9EkmlAUw-54" vertex="1">
          <mxGeometry width="210" height="40" as="geometry">
            <mxRectangle width="210" height="40" as="alternateBounds" />
          </mxGeometry>
        </mxCell>
        <mxCell id="_OtTeNp_AdRQ9EkmlAUw-56" value="" style="shape=partialRectangle;html=1;whiteSpace=wrap;connectable=0;strokeColor=inherit;overflow=hidden;fillColor=none;top=0;left=0;bottom=0;right=0;pointerEvents=1;fontSize=16;" parent="_OtTeNp_AdRQ9EkmlAUw-54" vertex="1">
          <mxGeometry x="210" width="370" height="40" as="geometry">
            <mxRectangle width="370" height="40" as="alternateBounds" />
          </mxGeometry>
        </mxCell>
        <mxCell id="_OtTeNp_AdRQ9EkmlAUw-57" value="" style="shape=partialRectangle;html=1;whiteSpace=wrap;connectable=0;strokeColor=inherit;overflow=hidden;fillColor=none;top=0;left=0;bottom=0;right=0;pointerEvents=1;fontSize=16;" parent="_OtTeNp_AdRQ9EkmlAUw-54" vertex="1">
          <mxGeometry x="580" width="250" height="40" as="geometry">
            <mxRectangle width="250" height="40" as="alternateBounds" />
          </mxGeometry>
        </mxCell>
        <mxCell id="_OtTeNp_AdRQ9EkmlAUw-58" value="" style="shape=tableRow;horizontal=0;startSize=0;swimlaneHead=0;swimlaneBody=0;strokeColor=inherit;top=0;left=0;bottom=0;right=0;collapsible=0;dropTarget=0;fillColor=none;points=[[0,0.5],[1,0.5]];portConstraint=eastwest;fontSize=16;" parent="_OtTeNp_AdRQ9EkmlAUw-53" vertex="1">
          <mxGeometry y="40" width="830" height="40" as="geometry" />
        </mxCell>
        <mxCell id="_OtTeNp_AdRQ9EkmlAUw-59" value="" style="shape=partialRectangle;html=1;whiteSpace=wrap;connectable=0;strokeColor=inherit;overflow=hidden;fillColor=none;top=0;left=0;bottom=0;right=0;pointerEvents=1;fontSize=16;" parent="_OtTeNp_AdRQ9EkmlAUw-58" vertex="1">
          <mxGeometry width="210" height="40" as="geometry">
            <mxRectangle width="210" height="40" as="alternateBounds" />
          </mxGeometry>
        </mxCell>
        <mxCell id="_OtTeNp_AdRQ9EkmlAUw-60" value="" style="shape=partialRectangle;html=1;whiteSpace=wrap;connectable=0;strokeColor=inherit;overflow=hidden;fillColor=none;top=0;left=0;bottom=0;right=0;pointerEvents=1;fontSize=16;" parent="_OtTeNp_AdRQ9EkmlAUw-58" vertex="1">
          <mxGeometry x="210" width="370" height="40" as="geometry">
            <mxRectangle width="370" height="40" as="alternateBounds" />
          </mxGeometry>
        </mxCell>
        <mxCell id="_OtTeNp_AdRQ9EkmlAUw-61" value="" style="shape=partialRectangle;html=1;whiteSpace=wrap;connectable=0;strokeColor=inherit;overflow=hidden;fillColor=none;top=0;left=0;bottom=0;right=0;pointerEvents=1;fontSize=16;" parent="_OtTeNp_AdRQ9EkmlAUw-58" vertex="1">
          <mxGeometry x="580" width="250" height="40" as="geometry">
            <mxRectangle width="250" height="40" as="alternateBounds" />
          </mxGeometry>
        </mxCell>
        <mxCell id="_OtTeNp_AdRQ9EkmlAUw-62" value="" style="shape=tableRow;horizontal=0;startSize=0;swimlaneHead=0;swimlaneBody=0;strokeColor=inherit;top=0;left=0;bottom=0;right=0;collapsible=0;dropTarget=0;fillColor=none;points=[[0,0.5],[1,0.5]];portConstraint=eastwest;fontSize=16;" parent="_OtTeNp_AdRQ9EkmlAUw-53" vertex="1">
          <mxGeometry y="80" width="830" height="40" as="geometry" />
        </mxCell>
        <mxCell id="_OtTeNp_AdRQ9EkmlAUw-63" value="" style="shape=partialRectangle;html=1;whiteSpace=wrap;connectable=0;strokeColor=inherit;overflow=hidden;fillColor=none;top=0;left=0;bottom=0;right=0;pointerEvents=1;fontSize=16;" parent="_OtTeNp_AdRQ9EkmlAUw-62" vertex="1">
          <mxGeometry width="210" height="40" as="geometry">
            <mxRectangle width="210" height="40" as="alternateBounds" />
          </mxGeometry>
        </mxCell>
        <mxCell id="_OtTeNp_AdRQ9EkmlAUw-64" value="" style="shape=partialRectangle;html=1;whiteSpace=wrap;connectable=0;strokeColor=inherit;overflow=hidden;fillColor=none;top=0;left=0;bottom=0;right=0;pointerEvents=1;fontSize=16;" parent="_OtTeNp_AdRQ9EkmlAUw-62" vertex="1">
          <mxGeometry x="210" width="370" height="40" as="geometry">
            <mxRectangle width="370" height="40" as="alternateBounds" />
          </mxGeometry>
        </mxCell>
        <mxCell id="_OtTeNp_AdRQ9EkmlAUw-65" value="" style="shape=partialRectangle;html=1;whiteSpace=wrap;connectable=0;strokeColor=inherit;overflow=hidden;fillColor=none;top=0;left=0;bottom=0;right=0;pointerEvents=1;fontSize=16;" parent="_OtTeNp_AdRQ9EkmlAUw-62" vertex="1">
          <mxGeometry x="580" width="250" height="40" as="geometry">
            <mxRectangle width="250" height="40" as="alternateBounds" />
          </mxGeometry>
        </mxCell>
        <mxCell id="_OtTeNp_AdRQ9EkmlAUw-66" value="" style="shape=table;startSize=0;container=1;collapsible=0;childLayout=tableLayout;fontSize=16;" parent="1" vertex="1">
          <mxGeometry x="4130" y="560" width="830" height="120" as="geometry" />
        </mxCell>
        <mxCell id="_OtTeNp_AdRQ9EkmlAUw-67" value="" style="shape=tableRow;horizontal=0;startSize=0;swimlaneHead=0;swimlaneBody=0;strokeColor=inherit;top=0;left=0;bottom=0;right=0;collapsible=0;dropTarget=0;fillColor=none;points=[[0,0.5],[1,0.5]];portConstraint=eastwest;fontSize=16;" parent="_OtTeNp_AdRQ9EkmlAUw-66" vertex="1">
          <mxGeometry width="830" height="40" as="geometry" />
        </mxCell>
        <mxCell id="_OtTeNp_AdRQ9EkmlAUw-68" value="" style="shape=partialRectangle;html=1;whiteSpace=wrap;connectable=0;strokeColor=inherit;overflow=hidden;fillColor=none;top=0;left=0;bottom=0;right=0;pointerEvents=1;fontSize=16;" parent="_OtTeNp_AdRQ9EkmlAUw-67" vertex="1">
          <mxGeometry width="210" height="40" as="geometry">
            <mxRectangle width="210" height="40" as="alternateBounds" />
          </mxGeometry>
        </mxCell>
        <mxCell id="_OtTeNp_AdRQ9EkmlAUw-69" value="" style="shape=partialRectangle;html=1;whiteSpace=wrap;connectable=0;strokeColor=inherit;overflow=hidden;fillColor=none;top=0;left=0;bottom=0;right=0;pointerEvents=1;fontSize=16;" parent="_OtTeNp_AdRQ9EkmlAUw-67" vertex="1">
          <mxGeometry x="210" width="370" height="40" as="geometry">
            <mxRectangle width="370" height="40" as="alternateBounds" />
          </mxGeometry>
        </mxCell>
        <mxCell id="_OtTeNp_AdRQ9EkmlAUw-70" value="" style="shape=partialRectangle;html=1;whiteSpace=wrap;connectable=0;strokeColor=inherit;overflow=hidden;fillColor=none;top=0;left=0;bottom=0;right=0;pointerEvents=1;fontSize=16;" parent="_OtTeNp_AdRQ9EkmlAUw-67" vertex="1">
          <mxGeometry x="580" width="250" height="40" as="geometry">
            <mxRectangle width="250" height="40" as="alternateBounds" />
          </mxGeometry>
        </mxCell>
        <mxCell id="_OtTeNp_AdRQ9EkmlAUw-71" value="" style="shape=tableRow;horizontal=0;startSize=0;swimlaneHead=0;swimlaneBody=0;strokeColor=inherit;top=0;left=0;bottom=0;right=0;collapsible=0;dropTarget=0;fillColor=none;points=[[0,0.5],[1,0.5]];portConstraint=eastwest;fontSize=16;" parent="_OtTeNp_AdRQ9EkmlAUw-66" vertex="1">
          <mxGeometry y="40" width="830" height="40" as="geometry" />
        </mxCell>
        <mxCell id="_OtTeNp_AdRQ9EkmlAUw-72" value="" style="shape=partialRectangle;html=1;whiteSpace=wrap;connectable=0;strokeColor=inherit;overflow=hidden;fillColor=none;top=0;left=0;bottom=0;right=0;pointerEvents=1;fontSize=16;" parent="_OtTeNp_AdRQ9EkmlAUw-71" vertex="1">
          <mxGeometry width="210" height="40" as="geometry">
            <mxRectangle width="210" height="40" as="alternateBounds" />
          </mxGeometry>
        </mxCell>
        <mxCell id="_OtTeNp_AdRQ9EkmlAUw-73" value="" style="shape=partialRectangle;html=1;whiteSpace=wrap;connectable=0;strokeColor=inherit;overflow=hidden;fillColor=none;top=0;left=0;bottom=0;right=0;pointerEvents=1;fontSize=16;" parent="_OtTeNp_AdRQ9EkmlAUw-71" vertex="1">
          <mxGeometry x="210" width="370" height="40" as="geometry">
            <mxRectangle width="370" height="40" as="alternateBounds" />
          </mxGeometry>
        </mxCell>
        <mxCell id="_OtTeNp_AdRQ9EkmlAUw-74" value="" style="shape=partialRectangle;html=1;whiteSpace=wrap;connectable=0;strokeColor=inherit;overflow=hidden;fillColor=none;top=0;left=0;bottom=0;right=0;pointerEvents=1;fontSize=16;" parent="_OtTeNp_AdRQ9EkmlAUw-71" vertex="1">
          <mxGeometry x="580" width="250" height="40" as="geometry">
            <mxRectangle width="250" height="40" as="alternateBounds" />
          </mxGeometry>
        </mxCell>
        <mxCell id="_OtTeNp_AdRQ9EkmlAUw-75" value="" style="shape=tableRow;horizontal=0;startSize=0;swimlaneHead=0;swimlaneBody=0;strokeColor=inherit;top=0;left=0;bottom=0;right=0;collapsible=0;dropTarget=0;fillColor=none;points=[[0,0.5],[1,0.5]];portConstraint=eastwest;fontSize=16;" parent="_OtTeNp_AdRQ9EkmlAUw-66" vertex="1">
          <mxGeometry y="80" width="830" height="40" as="geometry" />
        </mxCell>
        <mxCell id="_OtTeNp_AdRQ9EkmlAUw-76" value="" style="shape=partialRectangle;html=1;whiteSpace=wrap;connectable=0;strokeColor=inherit;overflow=hidden;fillColor=none;top=0;left=0;bottom=0;right=0;pointerEvents=1;fontSize=16;" parent="_OtTeNp_AdRQ9EkmlAUw-75" vertex="1">
          <mxGeometry width="210" height="40" as="geometry">
            <mxRectangle width="210" height="40" as="alternateBounds" />
          </mxGeometry>
        </mxCell>
        <mxCell id="_OtTeNp_AdRQ9EkmlAUw-77" value="" style="shape=partialRectangle;html=1;whiteSpace=wrap;connectable=0;strokeColor=inherit;overflow=hidden;fillColor=none;top=0;left=0;bottom=0;right=0;pointerEvents=1;fontSize=16;" parent="_OtTeNp_AdRQ9EkmlAUw-75" vertex="1">
          <mxGeometry x="210" width="370" height="40" as="geometry">
            <mxRectangle width="370" height="40" as="alternateBounds" />
          </mxGeometry>
        </mxCell>
        <mxCell id="_OtTeNp_AdRQ9EkmlAUw-78" value="" style="shape=partialRectangle;html=1;whiteSpace=wrap;connectable=0;strokeColor=inherit;overflow=hidden;fillColor=none;top=0;left=0;bottom=0;right=0;pointerEvents=1;fontSize=16;" parent="_OtTeNp_AdRQ9EkmlAUw-75" vertex="1">
          <mxGeometry x="580" width="250" height="40" as="geometry">
            <mxRectangle width="250" height="40" as="alternateBounds" />
          </mxGeometry>
        </mxCell>
        <mxCell id="_OtTeNp_AdRQ9EkmlAUw-79" value="" style="shape=table;startSize=0;container=1;collapsible=0;childLayout=tableLayout;fontSize=16;" parent="1" vertex="1">
          <mxGeometry x="4130" y="680" width="830" height="120" as="geometry" />
        </mxCell>
        <mxCell id="_OtTeNp_AdRQ9EkmlAUw-80" value="" style="shape=tableRow;horizontal=0;startSize=0;swimlaneHead=0;swimlaneBody=0;strokeColor=inherit;top=0;left=0;bottom=0;right=0;collapsible=0;dropTarget=0;fillColor=none;points=[[0,0.5],[1,0.5]];portConstraint=eastwest;fontSize=16;" parent="_OtTeNp_AdRQ9EkmlAUw-79" vertex="1">
          <mxGeometry width="830" height="40" as="geometry" />
        </mxCell>
        <mxCell id="_OtTeNp_AdRQ9EkmlAUw-81" value="" style="shape=partialRectangle;html=1;whiteSpace=wrap;connectable=0;strokeColor=inherit;overflow=hidden;fillColor=none;top=0;left=0;bottom=0;right=0;pointerEvents=1;fontSize=16;" parent="_OtTeNp_AdRQ9EkmlAUw-80" vertex="1">
          <mxGeometry width="210" height="40" as="geometry">
            <mxRectangle width="210" height="40" as="alternateBounds" />
          </mxGeometry>
        </mxCell>
        <mxCell id="_OtTeNp_AdRQ9EkmlAUw-82" value="" style="shape=partialRectangle;html=1;whiteSpace=wrap;connectable=0;strokeColor=inherit;overflow=hidden;fillColor=none;top=0;left=0;bottom=0;right=0;pointerEvents=1;fontSize=16;" parent="_OtTeNp_AdRQ9EkmlAUw-80" vertex="1">
          <mxGeometry x="210" width="370" height="40" as="geometry">
            <mxRectangle width="370" height="40" as="alternateBounds" />
          </mxGeometry>
        </mxCell>
        <mxCell id="_OtTeNp_AdRQ9EkmlAUw-83" value="" style="shape=partialRectangle;html=1;whiteSpace=wrap;connectable=0;strokeColor=inherit;overflow=hidden;fillColor=none;top=0;left=0;bottom=0;right=0;pointerEvents=1;fontSize=16;" parent="_OtTeNp_AdRQ9EkmlAUw-80" vertex="1">
          <mxGeometry x="580" width="250" height="40" as="geometry">
            <mxRectangle width="250" height="40" as="alternateBounds" />
          </mxGeometry>
        </mxCell>
        <mxCell id="_OtTeNp_AdRQ9EkmlAUw-84" value="" style="shape=tableRow;horizontal=0;startSize=0;swimlaneHead=0;swimlaneBody=0;strokeColor=inherit;top=0;left=0;bottom=0;right=0;collapsible=0;dropTarget=0;fillColor=none;points=[[0,0.5],[1,0.5]];portConstraint=eastwest;fontSize=16;" parent="_OtTeNp_AdRQ9EkmlAUw-79" vertex="1">
          <mxGeometry y="40" width="830" height="40" as="geometry" />
        </mxCell>
        <mxCell id="_OtTeNp_AdRQ9EkmlAUw-85" value="" style="shape=partialRectangle;html=1;whiteSpace=wrap;connectable=0;strokeColor=inherit;overflow=hidden;fillColor=none;top=0;left=0;bottom=0;right=0;pointerEvents=1;fontSize=16;" parent="_OtTeNp_AdRQ9EkmlAUw-84" vertex="1">
          <mxGeometry width="210" height="40" as="geometry">
            <mxRectangle width="210" height="40" as="alternateBounds" />
          </mxGeometry>
        </mxCell>
        <mxCell id="_OtTeNp_AdRQ9EkmlAUw-86" value="" style="shape=partialRectangle;html=1;whiteSpace=wrap;connectable=0;strokeColor=inherit;overflow=hidden;fillColor=none;top=0;left=0;bottom=0;right=0;pointerEvents=1;fontSize=16;" parent="_OtTeNp_AdRQ9EkmlAUw-84" vertex="1">
          <mxGeometry x="210" width="370" height="40" as="geometry">
            <mxRectangle width="370" height="40" as="alternateBounds" />
          </mxGeometry>
        </mxCell>
        <mxCell id="_OtTeNp_AdRQ9EkmlAUw-87" value="" style="shape=partialRectangle;html=1;whiteSpace=wrap;connectable=0;strokeColor=inherit;overflow=hidden;fillColor=none;top=0;left=0;bottom=0;right=0;pointerEvents=1;fontSize=16;" parent="_OtTeNp_AdRQ9EkmlAUw-84" vertex="1">
          <mxGeometry x="580" width="250" height="40" as="geometry">
            <mxRectangle width="250" height="40" as="alternateBounds" />
          </mxGeometry>
        </mxCell>
        <mxCell id="_OtTeNp_AdRQ9EkmlAUw-88" value="" style="shape=tableRow;horizontal=0;startSize=0;swimlaneHead=0;swimlaneBody=0;strokeColor=inherit;top=0;left=0;bottom=0;right=0;collapsible=0;dropTarget=0;fillColor=none;points=[[0,0.5],[1,0.5]];portConstraint=eastwest;fontSize=16;" parent="_OtTeNp_AdRQ9EkmlAUw-79" vertex="1">
          <mxGeometry y="80" width="830" height="40" as="geometry" />
        </mxCell>
        <mxCell id="_OtTeNp_AdRQ9EkmlAUw-89" value="" style="shape=partialRectangle;html=1;whiteSpace=wrap;connectable=0;strokeColor=inherit;overflow=hidden;fillColor=none;top=0;left=0;bottom=0;right=0;pointerEvents=1;fontSize=16;" parent="_OtTeNp_AdRQ9EkmlAUw-88" vertex="1">
          <mxGeometry width="210" height="40" as="geometry">
            <mxRectangle width="210" height="40" as="alternateBounds" />
          </mxGeometry>
        </mxCell>
        <mxCell id="_OtTeNp_AdRQ9EkmlAUw-90" value="" style="shape=partialRectangle;html=1;whiteSpace=wrap;connectable=0;strokeColor=inherit;overflow=hidden;fillColor=none;top=0;left=0;bottom=0;right=0;pointerEvents=1;fontSize=16;" parent="_OtTeNp_AdRQ9EkmlAUw-88" vertex="1">
          <mxGeometry x="210" width="370" height="40" as="geometry">
            <mxRectangle width="370" height="40" as="alternateBounds" />
          </mxGeometry>
        </mxCell>
        <mxCell id="_OtTeNp_AdRQ9EkmlAUw-91" value="" style="shape=partialRectangle;html=1;whiteSpace=wrap;connectable=0;strokeColor=inherit;overflow=hidden;fillColor=none;top=0;left=0;bottom=0;right=0;pointerEvents=1;fontSize=16;" parent="_OtTeNp_AdRQ9EkmlAUw-88" vertex="1">
          <mxGeometry x="580" width="250" height="40" as="geometry">
            <mxRectangle width="250" height="40" as="alternateBounds" />
          </mxGeometry>
        </mxCell>
        <mxCell id="_OtTeNp_AdRQ9EkmlAUw-92" value="" style="shape=table;startSize=0;container=1;collapsible=0;childLayout=tableLayout;fontSize=16;" parent="1" vertex="1">
          <mxGeometry x="4130" y="800" width="830" height="120" as="geometry" />
        </mxCell>
        <mxCell id="_OtTeNp_AdRQ9EkmlAUw-93" value="" style="shape=tableRow;horizontal=0;startSize=0;swimlaneHead=0;swimlaneBody=0;strokeColor=inherit;top=0;left=0;bottom=0;right=0;collapsible=0;dropTarget=0;fillColor=none;points=[[0,0.5],[1,0.5]];portConstraint=eastwest;fontSize=16;" parent="_OtTeNp_AdRQ9EkmlAUw-92" vertex="1">
          <mxGeometry width="830" height="40" as="geometry" />
        </mxCell>
        <mxCell id="_OtTeNp_AdRQ9EkmlAUw-94" value="" style="shape=partialRectangle;html=1;whiteSpace=wrap;connectable=0;strokeColor=inherit;overflow=hidden;fillColor=none;top=0;left=0;bottom=0;right=0;pointerEvents=1;fontSize=16;" parent="_OtTeNp_AdRQ9EkmlAUw-93" vertex="1">
          <mxGeometry width="210" height="40" as="geometry">
            <mxRectangle width="210" height="40" as="alternateBounds" />
          </mxGeometry>
        </mxCell>
        <mxCell id="_OtTeNp_AdRQ9EkmlAUw-95" value="" style="shape=partialRectangle;html=1;whiteSpace=wrap;connectable=0;strokeColor=inherit;overflow=hidden;fillColor=none;top=0;left=0;bottom=0;right=0;pointerEvents=1;fontSize=16;" parent="_OtTeNp_AdRQ9EkmlAUw-93" vertex="1">
          <mxGeometry x="210" width="370" height="40" as="geometry">
            <mxRectangle width="370" height="40" as="alternateBounds" />
          </mxGeometry>
        </mxCell>
        <mxCell id="_OtTeNp_AdRQ9EkmlAUw-96" value="" style="shape=partialRectangle;html=1;whiteSpace=wrap;connectable=0;strokeColor=inherit;overflow=hidden;fillColor=none;top=0;left=0;bottom=0;right=0;pointerEvents=1;fontSize=16;" parent="_OtTeNp_AdRQ9EkmlAUw-93" vertex="1">
          <mxGeometry x="580" width="250" height="40" as="geometry">
            <mxRectangle width="250" height="40" as="alternateBounds" />
          </mxGeometry>
        </mxCell>
        <mxCell id="_OtTeNp_AdRQ9EkmlAUw-97" value="" style="shape=tableRow;horizontal=0;startSize=0;swimlaneHead=0;swimlaneBody=0;strokeColor=inherit;top=0;left=0;bottom=0;right=0;collapsible=0;dropTarget=0;fillColor=none;points=[[0,0.5],[1,0.5]];portConstraint=eastwest;fontSize=16;" parent="_OtTeNp_AdRQ9EkmlAUw-92" vertex="1">
          <mxGeometry y="40" width="830" height="40" as="geometry" />
        </mxCell>
        <mxCell id="_OtTeNp_AdRQ9EkmlAUw-98" value="" style="shape=partialRectangle;html=1;whiteSpace=wrap;connectable=0;strokeColor=inherit;overflow=hidden;fillColor=none;top=0;left=0;bottom=0;right=0;pointerEvents=1;fontSize=16;" parent="_OtTeNp_AdRQ9EkmlAUw-97" vertex="1">
          <mxGeometry width="210" height="40" as="geometry">
            <mxRectangle width="210" height="40" as="alternateBounds" />
          </mxGeometry>
        </mxCell>
        <mxCell id="_OtTeNp_AdRQ9EkmlAUw-99" value="" style="shape=partialRectangle;html=1;whiteSpace=wrap;connectable=0;strokeColor=inherit;overflow=hidden;fillColor=none;top=0;left=0;bottom=0;right=0;pointerEvents=1;fontSize=16;" parent="_OtTeNp_AdRQ9EkmlAUw-97" vertex="1">
          <mxGeometry x="210" width="370" height="40" as="geometry">
            <mxRectangle width="370" height="40" as="alternateBounds" />
          </mxGeometry>
        </mxCell>
        <mxCell id="_OtTeNp_AdRQ9EkmlAUw-100" value="" style="shape=partialRectangle;html=1;whiteSpace=wrap;connectable=0;strokeColor=inherit;overflow=hidden;fillColor=none;top=0;left=0;bottom=0;right=0;pointerEvents=1;fontSize=16;" parent="_OtTeNp_AdRQ9EkmlAUw-97" vertex="1">
          <mxGeometry x="580" width="250" height="40" as="geometry">
            <mxRectangle width="250" height="40" as="alternateBounds" />
          </mxGeometry>
        </mxCell>
        <mxCell id="_OtTeNp_AdRQ9EkmlAUw-101" value="" style="shape=tableRow;horizontal=0;startSize=0;swimlaneHead=0;swimlaneBody=0;strokeColor=inherit;top=0;left=0;bottom=0;right=0;collapsible=0;dropTarget=0;fillColor=none;points=[[0,0.5],[1,0.5]];portConstraint=eastwest;fontSize=16;" parent="_OtTeNp_AdRQ9EkmlAUw-92" vertex="1">
          <mxGeometry y="80" width="830" height="40" as="geometry" />
        </mxCell>
        <mxCell id="_OtTeNp_AdRQ9EkmlAUw-102" value="" style="shape=partialRectangle;html=1;whiteSpace=wrap;connectable=0;strokeColor=inherit;overflow=hidden;fillColor=none;top=0;left=0;bottom=0;right=0;pointerEvents=1;fontSize=16;" parent="_OtTeNp_AdRQ9EkmlAUw-101" vertex="1">
          <mxGeometry width="210" height="40" as="geometry">
            <mxRectangle width="210" height="40" as="alternateBounds" />
          </mxGeometry>
        </mxCell>
        <mxCell id="_OtTeNp_AdRQ9EkmlAUw-103" value="" style="shape=partialRectangle;html=1;whiteSpace=wrap;connectable=0;strokeColor=inherit;overflow=hidden;fillColor=none;top=0;left=0;bottom=0;right=0;pointerEvents=1;fontSize=16;" parent="_OtTeNp_AdRQ9EkmlAUw-101" vertex="1">
          <mxGeometry x="210" width="370" height="40" as="geometry">
            <mxRectangle width="370" height="40" as="alternateBounds" />
          </mxGeometry>
        </mxCell>
        <mxCell id="_OtTeNp_AdRQ9EkmlAUw-104" value="" style="shape=partialRectangle;html=1;whiteSpace=wrap;connectable=0;strokeColor=inherit;overflow=hidden;fillColor=none;top=0;left=0;bottom=0;right=0;pointerEvents=1;fontSize=16;" parent="_OtTeNp_AdRQ9EkmlAUw-101" vertex="1">
          <mxGeometry x="580" width="250" height="40" as="geometry">
            <mxRectangle width="250" height="40" as="alternateBounds" />
          </mxGeometry>
        </mxCell>
        <mxCell id="_OtTeNp_AdRQ9EkmlAUw-105" value="" style="shape=table;startSize=0;container=1;collapsible=0;childLayout=tableLayout;fontSize=16;" parent="1" vertex="1">
          <mxGeometry x="4130" y="920" width="830" height="120" as="geometry" />
        </mxCell>
        <mxCell id="_OtTeNp_AdRQ9EkmlAUw-106" value="" style="shape=tableRow;horizontal=0;startSize=0;swimlaneHead=0;swimlaneBody=0;strokeColor=inherit;top=0;left=0;bottom=0;right=0;collapsible=0;dropTarget=0;fillColor=none;points=[[0,0.5],[1,0.5]];portConstraint=eastwest;fontSize=16;" parent="_OtTeNp_AdRQ9EkmlAUw-105" vertex="1">
          <mxGeometry width="830" height="40" as="geometry" />
        </mxCell>
        <mxCell id="_OtTeNp_AdRQ9EkmlAUw-107" value="" style="shape=partialRectangle;html=1;whiteSpace=wrap;connectable=0;strokeColor=inherit;overflow=hidden;fillColor=none;top=0;left=0;bottom=0;right=0;pointerEvents=1;fontSize=16;" parent="_OtTeNp_AdRQ9EkmlAUw-106" vertex="1">
          <mxGeometry width="210" height="40" as="geometry">
            <mxRectangle width="210" height="40" as="alternateBounds" />
          </mxGeometry>
        </mxCell>
        <mxCell id="_OtTeNp_AdRQ9EkmlAUw-108" value="" style="shape=partialRectangle;html=1;whiteSpace=wrap;connectable=0;strokeColor=inherit;overflow=hidden;fillColor=none;top=0;left=0;bottom=0;right=0;pointerEvents=1;fontSize=16;" parent="_OtTeNp_AdRQ9EkmlAUw-106" vertex="1">
          <mxGeometry x="210" width="370" height="40" as="geometry">
            <mxRectangle width="370" height="40" as="alternateBounds" />
          </mxGeometry>
        </mxCell>
        <mxCell id="_OtTeNp_AdRQ9EkmlAUw-109" value="" style="shape=partialRectangle;html=1;whiteSpace=wrap;connectable=0;strokeColor=inherit;overflow=hidden;fillColor=none;top=0;left=0;bottom=0;right=0;pointerEvents=1;fontSize=16;" parent="_OtTeNp_AdRQ9EkmlAUw-106" vertex="1">
          <mxGeometry x="580" width="250" height="40" as="geometry">
            <mxRectangle width="250" height="40" as="alternateBounds" />
          </mxGeometry>
        </mxCell>
        <mxCell id="_OtTeNp_AdRQ9EkmlAUw-110" value="" style="shape=tableRow;horizontal=0;startSize=0;swimlaneHead=0;swimlaneBody=0;strokeColor=inherit;top=0;left=0;bottom=0;right=0;collapsible=0;dropTarget=0;fillColor=none;points=[[0,0.5],[1,0.5]];portConstraint=eastwest;fontSize=16;" parent="_OtTeNp_AdRQ9EkmlAUw-105" vertex="1">
          <mxGeometry y="40" width="830" height="40" as="geometry" />
        </mxCell>
        <mxCell id="_OtTeNp_AdRQ9EkmlAUw-111" value="" style="shape=partialRectangle;html=1;whiteSpace=wrap;connectable=0;strokeColor=inherit;overflow=hidden;fillColor=none;top=0;left=0;bottom=0;right=0;pointerEvents=1;fontSize=16;" parent="_OtTeNp_AdRQ9EkmlAUw-110" vertex="1">
          <mxGeometry width="210" height="40" as="geometry">
            <mxRectangle width="210" height="40" as="alternateBounds" />
          </mxGeometry>
        </mxCell>
        <mxCell id="_OtTeNp_AdRQ9EkmlAUw-112" value="" style="shape=partialRectangle;html=1;whiteSpace=wrap;connectable=0;strokeColor=inherit;overflow=hidden;fillColor=none;top=0;left=0;bottom=0;right=0;pointerEvents=1;fontSize=16;" parent="_OtTeNp_AdRQ9EkmlAUw-110" vertex="1">
          <mxGeometry x="210" width="370" height="40" as="geometry">
            <mxRectangle width="370" height="40" as="alternateBounds" />
          </mxGeometry>
        </mxCell>
        <mxCell id="_OtTeNp_AdRQ9EkmlAUw-113" value="" style="shape=partialRectangle;html=1;whiteSpace=wrap;connectable=0;strokeColor=inherit;overflow=hidden;fillColor=none;top=0;left=0;bottom=0;right=0;pointerEvents=1;fontSize=16;" parent="_OtTeNp_AdRQ9EkmlAUw-110" vertex="1">
          <mxGeometry x="580" width="250" height="40" as="geometry">
            <mxRectangle width="250" height="40" as="alternateBounds" />
          </mxGeometry>
        </mxCell>
        <mxCell id="_OtTeNp_AdRQ9EkmlAUw-114" value="" style="shape=tableRow;horizontal=0;startSize=0;swimlaneHead=0;swimlaneBody=0;strokeColor=inherit;top=0;left=0;bottom=0;right=0;collapsible=0;dropTarget=0;fillColor=none;points=[[0,0.5],[1,0.5]];portConstraint=eastwest;fontSize=16;" parent="_OtTeNp_AdRQ9EkmlAUw-105" vertex="1">
          <mxGeometry y="80" width="830" height="40" as="geometry" />
        </mxCell>
        <mxCell id="_OtTeNp_AdRQ9EkmlAUw-115" value="" style="shape=partialRectangle;html=1;whiteSpace=wrap;connectable=0;strokeColor=inherit;overflow=hidden;fillColor=none;top=0;left=0;bottom=0;right=0;pointerEvents=1;fontSize=16;" parent="_OtTeNp_AdRQ9EkmlAUw-114" vertex="1">
          <mxGeometry width="210" height="40" as="geometry">
            <mxRectangle width="210" height="40" as="alternateBounds" />
          </mxGeometry>
        </mxCell>
        <mxCell id="_OtTeNp_AdRQ9EkmlAUw-116" value="" style="shape=partialRectangle;html=1;whiteSpace=wrap;connectable=0;strokeColor=inherit;overflow=hidden;fillColor=none;top=0;left=0;bottom=0;right=0;pointerEvents=1;fontSize=16;" parent="_OtTeNp_AdRQ9EkmlAUw-114" vertex="1">
          <mxGeometry x="210" width="370" height="40" as="geometry">
            <mxRectangle width="370" height="40" as="alternateBounds" />
          </mxGeometry>
        </mxCell>
        <mxCell id="_OtTeNp_AdRQ9EkmlAUw-117" value="" style="shape=partialRectangle;html=1;whiteSpace=wrap;connectable=0;strokeColor=inherit;overflow=hidden;fillColor=none;top=0;left=0;bottom=0;right=0;pointerEvents=1;fontSize=16;" parent="_OtTeNp_AdRQ9EkmlAUw-114" vertex="1">
          <mxGeometry x="580" width="250" height="40" as="geometry">
            <mxRectangle width="250" height="40" as="alternateBounds" />
          </mxGeometry>
        </mxCell>
        <mxCell id="_OtTeNp_AdRQ9EkmlAUw-118" value="" style="shape=table;startSize=0;container=1;collapsible=0;childLayout=tableLayout;fontSize=16;" parent="1" vertex="1">
          <mxGeometry x="4130" y="1040" width="830" height="130" as="geometry" />
        </mxCell>
        <mxCell id="_OtTeNp_AdRQ9EkmlAUw-119" value="" style="shape=tableRow;horizontal=0;startSize=0;swimlaneHead=0;swimlaneBody=0;strokeColor=inherit;top=0;left=0;bottom=0;right=0;collapsible=0;dropTarget=0;fillColor=none;points=[[0,0.5],[1,0.5]];portConstraint=eastwest;fontSize=16;" parent="_OtTeNp_AdRQ9EkmlAUw-118" vertex="1">
          <mxGeometry width="830" height="43" as="geometry" />
        </mxCell>
        <mxCell id="_OtTeNp_AdRQ9EkmlAUw-120" value="" style="shape=partialRectangle;html=1;whiteSpace=wrap;connectable=0;strokeColor=inherit;overflow=hidden;fillColor=none;top=0;left=0;bottom=0;right=0;pointerEvents=1;fontSize=16;" parent="_OtTeNp_AdRQ9EkmlAUw-119" vertex="1">
          <mxGeometry width="210" height="43" as="geometry">
            <mxRectangle width="210" height="43" as="alternateBounds" />
          </mxGeometry>
        </mxCell>
        <mxCell id="_OtTeNp_AdRQ9EkmlAUw-121" value="" style="shape=partialRectangle;html=1;whiteSpace=wrap;connectable=0;strokeColor=inherit;overflow=hidden;fillColor=none;top=0;left=0;bottom=0;right=0;pointerEvents=1;fontSize=16;" parent="_OtTeNp_AdRQ9EkmlAUw-119" vertex="1">
          <mxGeometry x="210" width="370" height="43" as="geometry">
            <mxRectangle width="370" height="43" as="alternateBounds" />
          </mxGeometry>
        </mxCell>
        <mxCell id="_OtTeNp_AdRQ9EkmlAUw-122" value="" style="shape=partialRectangle;html=1;whiteSpace=wrap;connectable=0;strokeColor=inherit;overflow=hidden;fillColor=none;top=0;left=0;bottom=0;right=0;pointerEvents=1;fontSize=16;" parent="_OtTeNp_AdRQ9EkmlAUw-119" vertex="1">
          <mxGeometry x="580" width="250" height="43" as="geometry">
            <mxRectangle width="250" height="43" as="alternateBounds" />
          </mxGeometry>
        </mxCell>
        <mxCell id="_OtTeNp_AdRQ9EkmlAUw-123" value="" style="shape=tableRow;horizontal=0;startSize=0;swimlaneHead=0;swimlaneBody=0;strokeColor=inherit;top=0;left=0;bottom=0;right=0;collapsible=0;dropTarget=0;fillColor=none;points=[[0,0.5],[1,0.5]];portConstraint=eastwest;fontSize=16;" parent="_OtTeNp_AdRQ9EkmlAUw-118" vertex="1">
          <mxGeometry y="43" width="830" height="44" as="geometry" />
        </mxCell>
        <mxCell id="_OtTeNp_AdRQ9EkmlAUw-124" value="" style="shape=partialRectangle;html=1;whiteSpace=wrap;connectable=0;strokeColor=inherit;overflow=hidden;fillColor=none;top=0;left=0;bottom=0;right=0;pointerEvents=1;fontSize=16;" parent="_OtTeNp_AdRQ9EkmlAUw-123" vertex="1">
          <mxGeometry width="210" height="44" as="geometry">
            <mxRectangle width="210" height="44" as="alternateBounds" />
          </mxGeometry>
        </mxCell>
        <mxCell id="_OtTeNp_AdRQ9EkmlAUw-125" value="" style="shape=partialRectangle;html=1;whiteSpace=wrap;connectable=0;strokeColor=inherit;overflow=hidden;fillColor=none;top=0;left=0;bottom=0;right=0;pointerEvents=1;fontSize=16;" parent="_OtTeNp_AdRQ9EkmlAUw-123" vertex="1">
          <mxGeometry x="210" width="370" height="44" as="geometry">
            <mxRectangle width="370" height="44" as="alternateBounds" />
          </mxGeometry>
        </mxCell>
        <mxCell id="_OtTeNp_AdRQ9EkmlAUw-126" value="" style="shape=partialRectangle;html=1;whiteSpace=wrap;connectable=0;strokeColor=inherit;overflow=hidden;fillColor=none;top=0;left=0;bottom=0;right=0;pointerEvents=1;fontSize=16;" parent="_OtTeNp_AdRQ9EkmlAUw-123" vertex="1">
          <mxGeometry x="580" width="250" height="44" as="geometry">
            <mxRectangle width="250" height="44" as="alternateBounds" />
          </mxGeometry>
        </mxCell>
        <mxCell id="_OtTeNp_AdRQ9EkmlAUw-127" value="" style="shape=tableRow;horizontal=0;startSize=0;swimlaneHead=0;swimlaneBody=0;strokeColor=inherit;top=0;left=0;bottom=0;right=0;collapsible=0;dropTarget=0;fillColor=none;points=[[0,0.5],[1,0.5]];portConstraint=eastwest;fontSize=16;" parent="_OtTeNp_AdRQ9EkmlAUw-118" vertex="1">
          <mxGeometry y="87" width="830" height="43" as="geometry" />
        </mxCell>
        <mxCell id="_OtTeNp_AdRQ9EkmlAUw-128" value="" style="shape=partialRectangle;html=1;whiteSpace=wrap;connectable=0;strokeColor=inherit;overflow=hidden;fillColor=none;top=0;left=0;bottom=0;right=0;pointerEvents=1;fontSize=16;" parent="_OtTeNp_AdRQ9EkmlAUw-127" vertex="1">
          <mxGeometry width="210" height="43" as="geometry">
            <mxRectangle width="210" height="43" as="alternateBounds" />
          </mxGeometry>
        </mxCell>
        <mxCell id="_OtTeNp_AdRQ9EkmlAUw-129" value="" style="shape=partialRectangle;html=1;whiteSpace=wrap;connectable=0;strokeColor=inherit;overflow=hidden;fillColor=none;top=0;left=0;bottom=0;right=0;pointerEvents=1;fontSize=16;" parent="_OtTeNp_AdRQ9EkmlAUw-127" vertex="1">
          <mxGeometry x="210" width="370" height="43" as="geometry">
            <mxRectangle width="370" height="43" as="alternateBounds" />
          </mxGeometry>
        </mxCell>
        <mxCell id="_OtTeNp_AdRQ9EkmlAUw-130" value="" style="shape=partialRectangle;html=1;whiteSpace=wrap;connectable=0;strokeColor=inherit;overflow=hidden;fillColor=none;top=0;left=0;bottom=0;right=0;pointerEvents=1;fontSize=16;" parent="_OtTeNp_AdRQ9EkmlAUw-127" vertex="1">
          <mxGeometry x="580" width="250" height="43" as="geometry">
            <mxRectangle width="250" height="43" as="alternateBounds" />
          </mxGeometry>
        </mxCell>
        <mxCell id="_OtTeNp_AdRQ9EkmlAUw-157" value="" style="shape=table;startSize=0;container=1;collapsible=0;childLayout=tableLayout;fontSize=16;" parent="1" vertex="1">
          <mxGeometry x="4130" y="80" width="830" height="120" as="geometry" />
        </mxCell>
        <mxCell id="_OtTeNp_AdRQ9EkmlAUw-158" value="" style="shape=tableRow;horizontal=0;startSize=0;swimlaneHead=0;swimlaneBody=0;strokeColor=inherit;top=0;left=0;bottom=0;right=0;collapsible=0;dropTarget=0;fillColor=none;points=[[0,0.5],[1,0.5]];portConstraint=eastwest;fontSize=16;" parent="_OtTeNp_AdRQ9EkmlAUw-157" vertex="1">
          <mxGeometry width="830" height="40" as="geometry" />
        </mxCell>
        <mxCell id="_OtTeNp_AdRQ9EkmlAUw-159" value="NÚMERO DA MATÉRIA" style="shape=partialRectangle;html=1;whiteSpace=wrap;connectable=0;strokeColor=inherit;overflow=hidden;fillColor=none;top=0;left=0;bottom=0;right=0;pointerEvents=1;fontSize=16;" parent="_OtTeNp_AdRQ9EkmlAUw-158" vertex="1">
          <mxGeometry width="210" height="40" as="geometry">
            <mxRectangle width="210" height="40" as="alternateBounds" />
          </mxGeometry>
        </mxCell>
        <mxCell id="_OtTeNp_AdRQ9EkmlAUw-160" value="NOME DA MATÉRIA" style="shape=partialRectangle;html=1;whiteSpace=wrap;connectable=0;strokeColor=inherit;overflow=hidden;fillColor=none;top=0;left=0;bottom=0;right=0;pointerEvents=1;fontSize=16;" parent="_OtTeNp_AdRQ9EkmlAUw-158" vertex="1">
          <mxGeometry x="210" width="370" height="40" as="geometry">
            <mxRectangle width="370" height="40" as="alternateBounds" />
          </mxGeometry>
        </mxCell>
        <mxCell id="_OtTeNp_AdRQ9EkmlAUw-161" value="QUANTIDADE EM ESTOQUE" style="shape=partialRectangle;html=1;whiteSpace=wrap;connectable=0;strokeColor=inherit;overflow=hidden;fillColor=none;top=0;left=0;bottom=0;right=0;pointerEvents=1;fontSize=16;" parent="_OtTeNp_AdRQ9EkmlAUw-158" vertex="1">
          <mxGeometry x="580" width="250" height="40" as="geometry">
            <mxRectangle width="250" height="40" as="alternateBounds" />
          </mxGeometry>
        </mxCell>
        <mxCell id="_OtTeNp_AdRQ9EkmlAUw-162" value="" style="shape=tableRow;horizontal=0;startSize=0;swimlaneHead=0;swimlaneBody=0;strokeColor=inherit;top=0;left=0;bottom=0;right=0;collapsible=0;dropTarget=0;fillColor=none;points=[[0,0.5],[1,0.5]];portConstraint=eastwest;fontSize=16;" parent="_OtTeNp_AdRQ9EkmlAUw-157" vertex="1">
          <mxGeometry y="40" width="830" height="40" as="geometry" />
        </mxCell>
        <mxCell id="_OtTeNp_AdRQ9EkmlAUw-163" value="" style="shape=partialRectangle;html=1;whiteSpace=wrap;connectable=0;strokeColor=inherit;overflow=hidden;fillColor=none;top=0;left=0;bottom=0;right=0;pointerEvents=1;fontSize=16;" parent="_OtTeNp_AdRQ9EkmlAUw-162" vertex="1">
          <mxGeometry width="210" height="40" as="geometry">
            <mxRectangle width="210" height="40" as="alternateBounds" />
          </mxGeometry>
        </mxCell>
        <mxCell id="_OtTeNp_AdRQ9EkmlAUw-164" value="" style="shape=partialRectangle;html=1;whiteSpace=wrap;connectable=0;strokeColor=inherit;overflow=hidden;fillColor=none;top=0;left=0;bottom=0;right=0;pointerEvents=1;fontSize=16;" parent="_OtTeNp_AdRQ9EkmlAUw-162" vertex="1">
          <mxGeometry x="210" width="370" height="40" as="geometry">
            <mxRectangle width="370" height="40" as="alternateBounds" />
          </mxGeometry>
        </mxCell>
        <mxCell id="_OtTeNp_AdRQ9EkmlAUw-165" value="" style="shape=partialRectangle;html=1;whiteSpace=wrap;connectable=0;strokeColor=inherit;overflow=hidden;fillColor=none;top=0;left=0;bottom=0;right=0;pointerEvents=1;fontSize=16;" parent="_OtTeNp_AdRQ9EkmlAUw-162" vertex="1">
          <mxGeometry x="580" width="250" height="40" as="geometry">
            <mxRectangle width="250" height="40" as="alternateBounds" />
          </mxGeometry>
        </mxCell>
        <mxCell id="_OtTeNp_AdRQ9EkmlAUw-166" value="" style="shape=tableRow;horizontal=0;startSize=0;swimlaneHead=0;swimlaneBody=0;strokeColor=inherit;top=0;left=0;bottom=0;right=0;collapsible=0;dropTarget=0;fillColor=none;points=[[0,0.5],[1,0.5]];portConstraint=eastwest;fontSize=16;" parent="_OtTeNp_AdRQ9EkmlAUw-157" vertex="1">
          <mxGeometry y="80" width="830" height="40" as="geometry" />
        </mxCell>
        <mxCell id="_OtTeNp_AdRQ9EkmlAUw-167" value="" style="shape=partialRectangle;html=1;whiteSpace=wrap;connectable=0;strokeColor=inherit;overflow=hidden;fillColor=none;top=0;left=0;bottom=0;right=0;pointerEvents=1;fontSize=16;" parent="_OtTeNp_AdRQ9EkmlAUw-166" vertex="1">
          <mxGeometry width="210" height="40" as="geometry">
            <mxRectangle width="210" height="40" as="alternateBounds" />
          </mxGeometry>
        </mxCell>
        <mxCell id="_OtTeNp_AdRQ9EkmlAUw-168" value="" style="shape=partialRectangle;html=1;whiteSpace=wrap;connectable=0;strokeColor=inherit;overflow=hidden;fillColor=none;top=0;left=0;bottom=0;right=0;pointerEvents=1;fontSize=16;" parent="_OtTeNp_AdRQ9EkmlAUw-166" vertex="1">
          <mxGeometry x="210" width="370" height="40" as="geometry">
            <mxRectangle width="370" height="40" as="alternateBounds" />
          </mxGeometry>
        </mxCell>
        <mxCell id="_OtTeNp_AdRQ9EkmlAUw-169" value="" style="shape=partialRectangle;html=1;whiteSpace=wrap;connectable=0;strokeColor=inherit;overflow=hidden;fillColor=none;top=0;left=0;bottom=0;right=0;pointerEvents=1;fontSize=16;" parent="_OtTeNp_AdRQ9EkmlAUw-166" vertex="1">
          <mxGeometry x="580" width="250" height="40" as="geometry">
            <mxRectangle width="250" height="40" as="alternateBounds" />
          </mxGeometry>
        </mxCell>
        <mxCell id="_OtTeNp_AdRQ9EkmlAUw-172" value="Fazer Cadastro" style="html=1;whiteSpace=wrap;container=1;recursiveResize=0;collapsible=0;" parent="1" vertex="1">
          <mxGeometry x="4800" width="160" height="80" as="geometry" />
        </mxCell>
        <mxCell id="_OtTeNp_AdRQ9EkmlAUw-173" value="" style="triangle;html=1;whiteSpace=wrap;" parent="_OtTeNp_AdRQ9EkmlAUw-172" vertex="1">
          <mxGeometry x="8" y="25" width="20" height="30" as="geometry" />
        </mxCell>
        <mxCell id="_OtTeNp_AdRQ9EkmlAUw-175" value="" style="shape=ext;double=1;rounded=0;whiteSpace=wrap;html=1;direction=south;" parent="1" vertex="1">
          <mxGeometry x="4960" width="829" height="1170" as="geometry" />
        </mxCell>
        <mxCell id="_OtTeNp_AdRQ9EkmlAUw-176" value="Cadastro de Matéria prima" style="text;strokeColor=none;fillColor=none;html=1;fontSize=24;fontStyle=1;verticalAlign=middle;align=center;" parent="1" vertex="1">
          <mxGeometry x="5070" y="10" width="100" height="40" as="geometry" />
        </mxCell>
        <mxCell id="_OtTeNp_AdRQ9EkmlAUw-179" value="" style="rounded=0;whiteSpace=wrap;html=1;" parent="1" vertex="1">
          <mxGeometry x="5140" y="190" width="410" height="30" as="geometry" />
        </mxCell>
        <mxCell id="_OtTeNp_AdRQ9EkmlAUw-181" value="" style="rounded=0;whiteSpace=wrap;html=1;" parent="1" vertex="1">
          <mxGeometry x="5140" y="290" width="410" height="30" as="geometry" />
        </mxCell>
        <mxCell id="_OtTeNp_AdRQ9EkmlAUw-182" value="Tipo de matéria-prima :" style="text;html=1;align=center;verticalAlign=middle;whiteSpace=wrap;rounded=0;" parent="1" vertex="1">
          <mxGeometry x="4971" y="290" width="190" height="30" as="geometry" />
        </mxCell>
        <mxCell id="_OtTeNp_AdRQ9EkmlAUw-184" value="Nome do fornecedor :" style="text;html=1;align=center;verticalAlign=middle;whiteSpace=wrap;rounded=0;" parent="1" vertex="1">
          <mxGeometry x="4971" y="190" width="190" height="30" as="geometry" />
        </mxCell>
        <mxCell id="_OtTeNp_AdRQ9EkmlAUw-186" value="" style="rounded=0;whiteSpace=wrap;html=1;" parent="1" vertex="1">
          <mxGeometry x="5142" y="380" width="410" height="30" as="geometry" />
        </mxCell>
        <mxCell id="_OtTeNp_AdRQ9EkmlAUw-189" value="Nome da matéria-prima :" style="text;html=1;align=center;verticalAlign=middle;whiteSpace=wrap;rounded=0;" parent="1" vertex="1">
          <mxGeometry x="4971" y="380" width="190" height="30" as="geometry" />
        </mxCell>
        <mxCell id="_OtTeNp_AdRQ9EkmlAUw-191" value="" style="rounded=0;whiteSpace=wrap;html=1;" parent="1" vertex="1">
          <mxGeometry x="5142" y="485" width="410" height="30" as="geometry" />
        </mxCell>
        <mxCell id="_OtTeNp_AdRQ9EkmlAUw-193" value="Quantidade de matéria-prima :" style="text;html=1;align=center;verticalAlign=middle;whiteSpace=wrap;rounded=0;" parent="1" vertex="1">
          <mxGeometry x="4971" y="490" width="171" height="20" as="geometry" />
        </mxCell>
        <mxCell id="_OtTeNp_AdRQ9EkmlAUw-195" value="Valor de matéria-prima :&amp;nbsp;" style="text;html=1;align=center;verticalAlign=middle;whiteSpace=wrap;rounded=0;" parent="1" vertex="1">
          <mxGeometry x="4971" y="610" width="171" height="20" as="geometry" />
        </mxCell>
        <mxCell id="_OtTeNp_AdRQ9EkmlAUw-197" value="" style="rounded=0;whiteSpace=wrap;html=1;" parent="1" vertex="1">
          <mxGeometry x="5130" y="605" width="410" height="30" as="geometry" />
        </mxCell>
        <mxCell id="_OtTeNp_AdRQ9EkmlAUw-199" value="" style="verticalLabelPosition=bottom;verticalAlign=top;html=1;shape=mxgraph.basic.tick;fillColor=#d5e8d4;strokeColor=#82b366;" parent="1" vertex="1">
          <mxGeometry x="5460" y="770" width="100" height="90" as="geometry" />
        </mxCell>
        <mxCell id="_OtTeNp_AdRQ9EkmlAUw-200" value="" style="verticalLabelPosition=bottom;verticalAlign=top;html=1;shape=mxgraph.basic.x;fillColor=#f8cecc;strokeColor=#b85450;" parent="1" vertex="1">
          <mxGeometry x="5200" y="780" width="90" height="85" as="geometry" />
        </mxCell>
        <mxCell id="_OtTeNp_AdRQ9EkmlAUw-203" value="Atualizar cadastro" style="html=1;whiteSpace=wrap;container=1;recursiveResize=0;collapsible=0;" parent="1" vertex="1">
          <mxGeometry x="5629" width="160" height="80" as="geometry" />
        </mxCell>
        <mxCell id="_OtTeNp_AdRQ9EkmlAUw-204" value="" style="triangle;html=1;whiteSpace=wrap;" parent="_OtTeNp_AdRQ9EkmlAUw-203" vertex="1">
          <mxGeometry x="8" y="25" width="20" height="30" as="geometry" />
        </mxCell>
      </root>
    </mxGraphModel>
  </diagram>
</mxfile>
